<svg width="20" height="20" viewBox="0 0 20 20" fill="none" xmlns="http://www.w3.org/2000/svg">
<path d="M0.00142809 0.714097C0.00142809 0.524707 0.0766632 0.343073 0.210582 0.209154C0.344501 0.0752348 0.526135 0 0.715525 0H1.34107C2.37937 0 2.97636 0.675535 3.32198 1.34964C3.55763 1.81095 3.72759 2.37366 3.86898 2.8621H18.5722C18.7929 2.86217 19.0106 2.91337 19.2081 3.01169C19.4057 3.11002 19.5778 3.25279 19.7109 3.4288C19.844 3.60481 19.9345 3.80927 19.9754 4.02615C20.0162 4.24302 20.0062 4.4664 19.9462 4.67876L17.8096 12.2125C17.6396 12.8102 17.2794 13.3362 16.7835 13.7107C16.2876 14.0852 15.6831 14.2877 15.0617 14.2876H7.80793C7.18135 14.2879 6.57208 14.082 6.07399 13.7019C5.5759 13.3217 5.21663 12.7884 5.05152 12.1839L4.13462 8.82052C4.12936 8.80545 4.1246 8.79021 4.12034 8.77482L2.64787 3.78043L2.50505 3.29913C2.36223 2.80497 2.23655 2.36794 2.04803 2.0009C1.82095 1.55816 1.61243 1.42962 1.33965 1.42962H0.714097C0.524707 1.42962 0.343073 1.35439 0.209154 1.22047C0.0752348 1.08655 0 0.904915 0 0.715525L0.00142809 0.714097ZM5.49712 8.38921L6.42973 11.8112C6.51241 12.1132 6.69211 12.3798 6.94114 12.5697C7.19017 12.7597 7.49474 12.8625 7.80793 12.8623H15.0632C15.3737 12.862 15.6757 12.7605 15.9234 12.5731C16.171 12.3857 16.3509 12.1228 16.4357 11.824L18.5722 4.29029H4.29029L5.49712 8.38921ZM10.0031 17.8567C10.0031 18.4249 9.77736 18.9698 9.37561 19.3715C8.97385 19.7733 8.42895 19.999 7.86078 19.999C7.29261 19.999 6.74771 19.7733 6.34595 19.3715C5.94419 18.9698 5.71849 18.4249 5.71849 17.8567C5.71849 17.2885 5.94419 16.7436 6.34595 16.3419C6.74771 15.9401 7.29261 15.7144 7.86078 15.7144C8.42895 15.7144 8.97385 15.9401 9.37561 16.3419C9.77736 16.7436 10.0031 17.2885 10.0031 17.8567ZM8.57487 17.8567C8.57487 17.6673 8.49964 17.4857 8.36572 17.3518C8.2318 17.2178 8.05017 17.1426 7.86078 17.1426C7.67139 17.1426 7.48975 17.2178 7.35583 17.3518C7.22192 17.4857 7.14668 17.6673 7.14668 17.8567C7.14668 18.0461 7.22192 18.2277 7.35583 18.3616C7.48975 18.4956 7.67139 18.5708 7.86078 18.5708C8.05017 18.5708 8.2318 18.4956 8.36572 18.3616C8.49964 18.2277 8.57487 18.0461 8.57487 17.8567ZM17.144 17.8567C17.144 18.4249 16.9183 18.9698 16.5166 19.3715C16.1148 19.7733 15.5699 19.999 15.0017 19.999C14.4336 19.999 13.8887 19.7733 13.4869 19.3715C13.0852 18.9698 12.8595 18.4249 12.8595 17.8567C12.8595 17.2885 13.0852 16.7436 13.4869 16.3419C13.8887 15.9401 14.4336 15.7144 15.0017 15.7144C15.5699 15.7144 16.1148 15.9401 16.5166 16.3419C16.9183 16.7436 17.144 17.2885 17.144 17.8567ZM15.7158 17.8567C15.7158 17.6673 15.6406 17.4857 15.5067 17.3518C15.3728 17.2178 15.1911 17.1426 15.0017 17.1426C14.8124 17.1426 14.6307 17.2178 14.4968 17.3518C14.3629 17.4857 14.2876 17.6673 14.2876 17.8567C14.2876 18.0461 14.3629 18.2277 14.4968 18.3616C14.6307 18.4956 14.8124 18.5708 15.0017 18.5708C15.1911 18.5708 15.3728 18.4956 15.5067 18.3616C15.6406 18.2277 15.7158 18.0461 15.7158 17.8567Z" fill="#FED4A0"/>
</svg>
