<svg width="22" height="20" viewBox="0 0 22 20" fill="none" xmlns="http://www.w3.org/2000/svg">
<path d="M21 6.86207C21.0034 8.40083 20.4106 9.8811 19.346 10.9921C16.9049 13.5231 14.5369 16.1622 12.0059 18.6002C11.4249 19.1502 10.5039 19.1302 9.94886 18.5552L2.65377 10.9931C0.448744 8.70709 0.448744 5.01704 2.65377 2.73202C3.17492 2.18501 3.80172 1.74953 4.49618 1.45198C5.19064 1.15443 5.93829 1.001 6.69382 1.001C7.44934 1.001 8.19699 1.15443 8.89145 1.45198C9.58591 1.74953 10.2127 2.18501 10.7339 2.73202L10.9999 3.00602L11.2649 2.73202C11.7871 2.18631 12.4141 1.75162 13.1083 1.45401C13.8025 1.15639 14.5496 1.00197 15.3049 1C16.8249 1 18.278 1.62401 19.345 2.73202C20.41 3.84288 21.0032 5.32316 21 6.86207Z" stroke="#FED4A0" stroke-width="1.5" stroke-linejoin="round"/>
</svg>
