<svg width="17" height="16" viewBox="0 0 17 16" fill="none" xmlns="http://www.w3.org/2000/svg">
<path d="M16 5.39655C16.0026 6.55062 15.558 7.66082 14.7595 8.49408C12.9287 10.3924 11.1527 12.3716 9.25441 14.2001C8.81865 14.6127 8.1279 14.5977 7.71164 14.1664L2.24033 8.49483C0.586558 6.78031 0.586558 4.01278 2.24033 2.29901C2.63119 1.88876 3.10129 1.56215 3.62214 1.33898C4.14298 1.11582 4.70372 1.00075 5.27036 1.00075C5.837 1.00075 6.39774 1.11582 6.91859 1.33898C7.43944 1.56215 7.90954 1.88876 8.3004 2.29901L8.4999 2.50452L8.69865 2.29901C9.0903 1.88973 9.56054 1.56372 10.0812 1.34051C10.6019 1.1173 11.1622 1.00148 11.7287 1C12.8687 1 13.9585 1.46801 14.7587 2.29901C15.5575 3.13216 16.0024 4.24237 16 5.39655Z" fill="#FED4A0" stroke="#FED4A0" stroke-width="2" stroke-linejoin="round"/>
</svg>
