<svg width="17" height="16" viewBox="0 0 17 16" fill="none" xmlns="http://www.w3.org/2000/svg">
<path d="M16 5.64658C16.0026 6.80065 15.558 7.91085 14.7595 8.74411C12.9287 10.6424 11.1527 12.6217 9.25441 14.4502C8.81865 14.8627 8.1279 14.8477 7.71164 14.4164L2.24033 8.74486C0.586558 7.03034 0.586558 4.26281 2.24033 2.54904C2.63119 2.13879 3.10129 1.81218 3.62214 1.58901C4.14298 1.36585 4.70372 1.25078 5.27036 1.25078C5.837 1.25078 6.39774 1.36585 6.91859 1.58901C7.43944 1.81218 7.90954 2.13879 8.3004 2.54904L8.4999 2.75455L8.69865 2.54904C9.0903 2.13976 9.56054 1.81375 10.0812 1.59054C10.6019 1.36733 11.1622 1.25151 11.7287 1.25003C12.8687 1.25003 13.9585 1.71804 14.7587 2.54904C15.5575 3.38219 16.0024 4.4924 16 5.64658Z" stroke="#FED4A0" stroke-linejoin="round"/>
</svg>
