<svg width="17" height="17" viewBox="0 0 17 17" fill="none" xmlns="http://www.w3.org/2000/svg">
<path d="M16.2914 16.2915L12.8734 12.8735M12.8734 12.8735C13.458 12.2888 13.9218 11.5947 14.2382 10.8308C14.5547 10.0668 14.7175 9.24809 14.7175 8.42123C14.7175 7.59438 14.5547 6.77562 14.2382 6.01171C13.9218 5.2478 13.458 4.55369 12.8734 3.96902C12.2887 3.38434 11.5946 2.92055 10.8307 2.60413C10.0668 2.28771 9.248 2.12485 8.42114 2.12485C7.59429 2.12485 6.77553 2.28771 6.01162 2.60413C5.24771 2.92055 4.5536 3.38434 3.96892 3.96902C2.78812 5.14982 2.12476 6.75133 2.12476 8.42123C2.12476 10.0911 2.78812 11.6926 3.96892 12.8735C5.14973 14.0543 6.75124 14.7176 8.42114 14.7176C10.091 14.7176 11.6926 14.0543 12.8734 12.8735Z" stroke="#FED4A0" stroke-linecap="round" stroke-linejoin="round"/>
</svg>
