<svg width="33" height="24" viewBox="0 0 33 24" fill="none" xmlns="http://www.w3.org/2000/svg">
<path d="M31.3647 1.45459C31.6796 1.45459 31.9631 1.58089 32.1688 1.78593C32.374 1.99048 32.5 2.27159 32.5 2.58368V22.1659C32.5 22.4784 32.3742 22.76 32.169 22.9645C31.9641 23.1687 31.6812 23.295 31.3647 23.295H1.63525C1.32042 23.295 1.0369 23.1687 0.831182 22.9636C0.625964 22.7591 0.5 22.478 0.5 22.1659V2.58368C0.5 2.27118 0.625843 1.9896 0.831042 1.78507C1.03589 1.58088 1.31881 1.45459 1.63525 1.45459H31.3647Z" fill="#35373B" stroke="#FED4A0"/>
<mask id="path-2-inside-1_972_2538" fill="white">
<path fill-rule="evenodd" clip-rule="evenodd" d="M29.1877 16.5703H27.7159V15.847H29.0004C29.0004 15.847 29.4688 15.9002 29.4688 15.5983C29.4688 15.3153 28.7686 15.3373 28.7686 15.3373C28.7686 15.3373 27.6274 15.4331 27.6274 14.4019C27.6274 13.376 28.6583 13.4346 28.6583 13.4346H30.2415V14.168H28.9673C28.9673 14.168 28.526 14.0824 28.526 14.3917C28.526 14.651 29.1271 14.6141 29.1271 14.6141C29.1271 14.6141 30.3895 14.5241 30.3895 15.47C30.3895 16.484 29.5762 16.5744 29.2876 16.5744C29.2255 16.5744 29.1877 16.5703 29.1877 16.5703ZM21.8446 16.5754V13.44H24.424V14.168H22.6765V14.651H24.3805V15.3637H22.6765V15.8958H24.424V16.5754H21.8446ZM26.2715 16.5703H24.7993V15.847H26.0896C26.0896 15.847 26.5526 15.9002 26.5526 15.5983C26.5526 15.3153 25.8524 15.3373 25.8524 15.3373C25.8524 15.3373 24.7112 15.4331 24.7112 14.4019C24.7112 13.376 25.7421 13.4346 25.7421 13.4346H27.3306V14.168H26.0514C26.0514 14.168 25.6098 14.0824 25.6098 14.3917C25.6098 14.651 26.2102 14.6141 26.2102 14.6141C26.2102 14.6141 27.4733 14.5241 27.4733 15.47C27.4733 16.484 26.66 16.5744 26.3714 16.5744C26.309 16.5744 26.2715 16.5703 26.2715 16.5703ZM15.1182 16.5757H14.3962L13.5194 15.645L12.6376 16.5757H12.1357H9.56118V13.4295H12.1357H12.5712L13.5194 14.4286L14.4733 13.4349H15.1075V13.4295H17.1141C17.1141 13.4295 18.1618 13.3178 18.1618 14.3535C18.1618 15.2784 17.8136 15.5658 16.7449 15.5658H15.9344V16.5757H15.1182ZM14.0819 15.0297L15.1075 16.1239V13.9396L14.0819 15.0297ZM10.3938 15.8954H12.1357L12.9518 15.0297L12.1357 14.1683H10.3938V14.6513H12.0918V15.3641H10.3938V15.8954ZM15.9344 14.7467H16.7887C17.037 14.7467 17.2411 14.6141 17.2411 14.4493C17.2411 14.2851 17.037 14.1518 16.7887 14.1518H15.9344V14.7467ZM20.6317 16.5808V15.9696C20.6317 15.9696 20.5978 15.4913 20.0795 15.4913H19.2755V16.5808H18.4479V13.44H20.4551C20.4551 13.44 21.5025 13.3178 21.5025 14.3592C21.5025 14.9014 21.0395 15.0926 21.0395 15.0926C21.0395 15.0926 21.4365 15.2734 21.4365 15.8044V16.5808H20.6317ZM19.2755 14.7525H20.1298C20.3781 14.7525 20.5818 14.6198 20.5818 14.455C20.5818 14.2902 20.3781 14.1575 20.1298 14.1575H19.2755V14.7525ZM18.6523 12.2815H19.4841V9.13059H18.6523V12.2815ZM12.2459 12.2707V9.13025H14.8261V9.86333H13.0785V10.347H14.7822V11.0591H13.0785V11.5911H14.8261V12.2707H12.2459ZM10.9503 12.271V10.1026L9.91398 12.271H9.23585L8.19386 10.1131V12.271H7.4715H7.36127H6.56186L6.27505 11.6121H4.76469L4.47253 12.271H3.56824L4.94091 9.12992H6.10418L7.36127 12.0158V9.12992H8.66795L9.57759 11.0804L10.4815 9.12992H11.7882V12.271H10.9503ZM5.11749 10.8093H5.92225L5.51987 9.87416L5.11749 10.8093ZM27.1972 12.271L25.8859 10.1716V12.271H25.1746H25.0415H24.2649L23.9728 11.6121H22.4621L22.1749 12.271H21.414H21.2763H20.8793C20.8793 12.271 19.7663 12.1167 19.7663 10.7883C19.7663 9.04497 21.0288 9.11401 21.0723 9.10352L22.0921 9.12992V9.83693L21.2549 9.84742C21.2549 9.84742 20.7088 9.84742 20.6421 10.5331C20.6349 10.6123 20.631 10.6841 20.6317 10.7514C20.6349 11.8131 21.5874 11.4838 21.6188 11.4736L22.644 9.12992H23.8012L25.0415 11.9786V9.12992H26.2105L27.5061 11.1975V9.12992H28.3391V12.271H27.1972ZM22.8149 10.8093H23.62L23.223 9.87416L22.8149 10.8093ZM17.4391 12.271V11.6598C17.4391 11.6598 17.4062 11.1816 16.8879 11.1816H16.0831V12.271H15.2559V9.12992H17.2628C17.2628 9.12992 18.3102 9.00774 18.3102 10.0495C18.3102 10.5917 17.8471 10.7829 17.8471 10.7829C17.8471 10.7829 18.2495 10.9636 18.2495 11.495V12.271H17.4391ZM16.0831 10.4427H16.9375C17.1858 10.4427 17.3895 10.3097 17.3895 10.1449C17.3895 9.98043 17.1858 9.84742 16.9375 9.84742H16.0831V10.4427Z"/>
</mask>
<path fill-rule="evenodd" clip-rule="evenodd" d="M29.1877 16.5703H27.7159V15.847H29.0004C29.0004 15.847 29.4688 15.9002 29.4688 15.5983C29.4688 15.3153 28.7686 15.3373 28.7686 15.3373C28.7686 15.3373 27.6274 15.4331 27.6274 14.4019C27.6274 13.376 28.6583 13.4346 28.6583 13.4346H30.2415V14.168H28.9673C28.9673 14.168 28.526 14.0824 28.526 14.3917C28.526 14.651 29.1271 14.6141 29.1271 14.6141C29.1271 14.6141 30.3895 14.5241 30.3895 15.47C30.3895 16.484 29.5762 16.5744 29.2876 16.5744C29.2255 16.5744 29.1877 16.5703 29.1877 16.5703ZM21.8446 16.5754V13.44H24.424V14.168H22.6765V14.651H24.3805V15.3637H22.6765V15.8958H24.424V16.5754H21.8446ZM26.2715 16.5703H24.7993V15.847H26.0896C26.0896 15.847 26.5526 15.9002 26.5526 15.5983C26.5526 15.3153 25.8524 15.3373 25.8524 15.3373C25.8524 15.3373 24.7112 15.4331 24.7112 14.4019C24.7112 13.376 25.7421 13.4346 25.7421 13.4346H27.3306V14.168H26.0514C26.0514 14.168 25.6098 14.0824 25.6098 14.3917C25.6098 14.651 26.2102 14.6141 26.2102 14.6141C26.2102 14.6141 27.4733 14.5241 27.4733 15.47C27.4733 16.484 26.66 16.5744 26.3714 16.5744C26.309 16.5744 26.2715 16.5703 26.2715 16.5703ZM15.1182 16.5757H14.3962L13.5194 15.645L12.6376 16.5757H12.1357H9.56118V13.4295H12.1357H12.5712L13.5194 14.4286L14.4733 13.4349H15.1075V13.4295H17.1141C17.1141 13.4295 18.1618 13.3178 18.1618 14.3535C18.1618 15.2784 17.8136 15.5658 16.7449 15.5658H15.9344V16.5757H15.1182ZM14.0819 15.0297L15.1075 16.1239V13.9396L14.0819 15.0297ZM10.3938 15.8954H12.1357L12.9518 15.0297L12.1357 14.1683H10.3938V14.6513H12.0918V15.3641H10.3938V15.8954ZM15.9344 14.7467H16.7887C17.037 14.7467 17.2411 14.6141 17.2411 14.4493C17.2411 14.2851 17.037 14.1518 16.7887 14.1518H15.9344V14.7467ZM20.6317 16.5808V15.9696C20.6317 15.9696 20.5978 15.4913 20.0795 15.4913H19.2755V16.5808H18.4479V13.44H20.4551C20.4551 13.44 21.5025 13.3178 21.5025 14.3592C21.5025 14.9014 21.0395 15.0926 21.0395 15.0926C21.0395 15.0926 21.4365 15.2734 21.4365 15.8044V16.5808H20.6317ZM19.2755 14.7525H20.1298C20.3781 14.7525 20.5818 14.6198 20.5818 14.455C20.5818 14.2902 20.3781 14.1575 20.1298 14.1575H19.2755V14.7525ZM18.6523 12.2815H19.4841V9.13059H18.6523V12.2815ZM12.2459 12.2707V9.13025H14.8261V9.86333H13.0785V10.347H14.7822V11.0591H13.0785V11.5911H14.8261V12.2707H12.2459ZM10.9503 12.271V10.1026L9.91398 12.271H9.23585L8.19386 10.1131V12.271H7.4715H7.36127H6.56186L6.27505 11.6121H4.76469L4.47253 12.271H3.56824L4.94091 9.12992H6.10418L7.36127 12.0158V9.12992H8.66795L9.57759 11.0804L10.4815 9.12992H11.7882V12.271H10.9503ZM5.11749 10.8093H5.92225L5.51987 9.87416L5.11749 10.8093ZM27.1972 12.271L25.8859 10.1716V12.271H25.1746H25.0415H24.2649L23.9728 11.6121H22.4621L22.1749 12.271H21.414H21.2763H20.8793C20.8793 12.271 19.7663 12.1167 19.7663 10.7883C19.7663 9.04497 21.0288 9.11401 21.0723 9.10352L22.0921 9.12992V9.83693L21.2549 9.84742C21.2549 9.84742 20.7088 9.84742 20.6421 10.5331C20.6349 10.6123 20.631 10.6841 20.6317 10.7514C20.6349 11.8131 21.5874 11.4838 21.6188 11.4736L22.644 9.12992H23.8012L25.0415 11.9786V9.12992H26.2105L27.5061 11.1975V9.12992H28.3391V12.271H27.1972ZM22.8149 10.8093H23.62L23.223 9.87416L22.8149 10.8093ZM17.4391 12.271V11.6598C17.4391 11.6598 17.4062 11.1816 16.8879 11.1816H16.0831V12.271H15.2559V9.12992H17.2628C17.2628 9.12992 18.3102 9.00774 18.3102 10.0495C18.3102 10.5917 17.8471 10.7829 17.8471 10.7829C17.8471 10.7829 18.2495 10.9636 18.2495 11.495V12.271H17.4391ZM16.0831 10.4427H16.9375C17.1858 10.4427 17.3895 10.3097 17.3895 10.1449C17.3895 9.98043 17.1858 9.84742 16.9375 9.84742H16.0831V10.4427Z" fill="#35373B" stroke="#FED4A0" stroke-width="2" mask="url(#path-2-inside-1_972_2538)"/>
</svg>
