<svg width="22" height="22" viewBox="0 0 22 22" fill="none" xmlns="http://www.w3.org/2000/svg">
<path d="M3.29669 3.8456C3.29669 3.69973 3.35464 3.55984 3.45778 3.45669C3.56093 3.35355 3.70082 3.2956 3.84669 3.2956H4.32849C5.12819 3.2956 5.58799 3.8159 5.85419 4.3351C6.03569 4.6904 6.16659 5.1238 6.27549 5.5H17.6C17.77 5.50005 17.9376 5.53949 18.0898 5.61522C18.2419 5.69095 18.3745 5.80091 18.477 5.93647C18.5795 6.07204 18.6493 6.22952 18.6807 6.39655C18.7121 6.56359 18.7044 6.73564 18.6582 6.8992L17.0126 12.7017C16.8817 13.1621 16.6042 13.5672 16.2223 13.8556C15.8404 14.144 15.3748 14.3001 14.8962 14.3H9.30929C8.8267 14.3002 8.35743 14.1416 7.9738 13.8488C7.59017 13.5561 7.31346 13.1452 7.18629 12.6797L6.48009 10.0892C6.47604 10.0776 6.47238 10.0659 6.46909 10.054L5.33499 6.2073L5.22499 5.8366C5.11499 5.456 5.01819 5.1194 4.87299 4.8367C4.69809 4.4957 4.53749 4.3967 4.32739 4.3967H3.84559C3.69972 4.3967 3.55983 4.33875 3.45668 4.23561C3.35354 4.13246 3.29559 3.99257 3.29559 3.8467L3.29669 3.8456ZM7.52949 9.757L8.24779 12.3926C8.31148 12.6253 8.44988 12.8306 8.64168 12.9768C8.83349 13.1231 9.06807 13.2023 9.30929 13.2022H14.8973C15.1365 13.202 15.3691 13.1238 15.5598 12.9795C15.7506 12.8351 15.8891 12.6326 15.9544 12.4025L17.6 6.6H6.59999L7.52949 9.757ZM11 17.0489C11 17.4865 10.8262 17.9062 10.5167 18.2156C10.2073 18.5251 9.7876 18.6989 9.34999 18.6989C8.91239 18.6989 8.4927 18.5251 8.18327 18.2156C7.87383 17.9062 7.69999 17.4865 7.69999 17.0489C7.69999 16.6113 7.87383 16.1916 8.18327 15.8822C8.4927 15.5727 8.91239 15.3989 9.34999 15.3989C9.7876 15.3989 10.2073 15.5727 10.5167 15.8822C10.8262 16.1916 11 16.6113 11 17.0489ZM9.89999 17.0489C9.89999 16.903 9.84205 16.7631 9.7389 16.66C9.63576 16.5568 9.49586 16.4989 9.34999 16.4989C9.20412 16.4989 9.06423 16.5568 8.96108 16.66C8.85794 16.7631 8.79999 16.903 8.79999 17.0489C8.79999 17.1948 8.85794 17.3347 8.96108 17.4378C9.06423 17.541 9.20412 17.5989 9.34999 17.5989C9.49586 17.5989 9.63576 17.541 9.7389 17.4378C9.84205 17.3347 9.89999 17.1948 9.89999 17.0489ZM16.5 17.0489C16.5 17.4865 16.3262 17.9062 16.0167 18.2156C15.7073 18.5251 15.2876 18.6989 14.85 18.6989C14.4124 18.6989 13.9927 18.5251 13.6833 18.2156C13.3738 17.9062 13.2 17.4865 13.2 17.0489C13.2 16.6113 13.3738 16.1916 13.6833 15.8822C13.9927 15.5727 14.4124 15.3989 14.85 15.3989C15.2876 15.3989 15.7073 15.5727 16.0167 15.8822C16.3262 16.1916 16.5 16.6113 16.5 17.0489ZM15.4 17.0489C15.4 16.903 15.342 16.7631 15.2389 16.66C15.1358 16.5568 14.9959 16.4989 14.85 16.4989C14.7041 16.4989 14.5642 16.5568 14.4611 16.66C14.3579 16.7631 14.3 16.903 14.3 17.0489C14.3 17.1948 14.3579 17.3347 14.4611 17.4378C14.5642 17.541 14.7041 17.5989 14.85 17.5989C14.9959 17.5989 15.1358 17.541 15.2389 17.4378C15.342 17.3347 15.4 17.1948 15.4 17.0489Z" fill="#FED4A0"/>
</svg>
