<svg width="33" height="25" viewBox="0 0 33 25" fill="none" xmlns="http://www.w3.org/2000/svg">
<rect x="0.5" y="1.53125" width="32" height="22.7188" rx="3.5" fill="#35373B" stroke="#FED4A0"/>
<g clip-path="url(#clip0_972_2543)">
<path d="M8.21183 7.4612C7.45422 7.46125 6.71152 7.67189 6.06669 8.06961C5.42186 8.46733 4.90027 9.03646 4.56018 9.71345C4.27403 10.2829 4.125 10.9113 4.125 11.5486C4.125 12.1858 4.27403 12.8143 4.56018 13.3837C4.90027 14.0607 5.42186 14.6298 6.06669 15.0275C6.71152 15.4252 7.45422 15.6359 8.21183 15.6359C9.31527 15.6359 10.2434 15.2729 10.9209 14.649C11.6923 13.9374 12.1378 12.8856 12.1378 11.6419C12.1376 11.3633 12.1134 11.0852 12.0656 10.8107H8.21287V12.3844H10.4197C10.3748 12.6358 10.2795 12.8755 10.1395 13.089C9.99946 13.3026 9.81767 13.4856 9.60505 13.627C9.23793 13.8756 8.76561 14.0179 8.21287 14.0179C7.14655 14.0179 6.24215 13.2991 5.91833 12.3308C5.74732 11.8233 5.74732 11.2738 5.91833 10.7664C6.24215 9.79698 7.14655 9.07923 8.21287 9.07923C8.79552 9.0697 9.35855 9.28973 9.78037 9.69179L10.9477 8.52648C10.2081 7.83126 9.22688 7.44947 8.21183 7.4612ZM14.916 8.02839V15.144H15.8297V12.2617H17.3405C17.9623 12.2617 18.4851 12.0595 18.91 11.6553C19.1215 11.4657 19.2895 11.2326 19.4026 10.972C19.5156 10.7115 19.571 10.4295 19.5649 10.1455C19.5692 9.86304 19.5129 9.58288 19.4 9.3239C19.2871 9.06492 19.12 8.83311 18.91 8.64404C18.7021 8.44269 18.4563 8.28452 18.1869 8.17868C17.9175 8.07283 17.6298 8.0214 17.3405 8.02736L14.916 8.02839ZM17.4188 8.90495C17.5783 8.90773 17.7356 8.94248 17.8813 9.00713C18.0271 9.07179 18.1585 9.16504 18.2676 9.28136C18.3837 9.39437 18.4761 9.52953 18.5392 9.67885C18.6022 9.82817 18.6347 9.98861 18.6347 10.1507C18.6347 10.3128 18.6022 10.4732 18.5392 10.6226C18.4761 10.7719 18.3837 10.907 18.2676 11.02C18.1507 11.141 18.01 11.2362 17.8542 11.2996C17.6985 11.363 17.5312 11.3932 17.3631 11.3882H15.8297V8.90495H17.3631C17.3817 8.90452 17.4003 8.90452 17.4188 8.90495ZM21.6717 10.1167C20.8034 10.1167 20.1486 10.4343 19.7051 11.0706L20.5105 11.5769C20.8075 11.1469 21.2118 10.9314 21.7222 10.9314C22.0479 10.9274 22.3631 11.0463 22.605 11.2645C22.7241 11.3629 22.8197 11.4866 22.885 11.6267C22.9503 11.7667 22.9836 11.9195 22.9824 12.074V12.2823C22.6318 12.0833 22.1842 11.9843 21.6418 11.9843C21.0055 11.9843 20.4971 12.1338 20.1166 12.4318C19.735 12.7288 19.5453 13.13 19.5453 13.6332C19.5411 13.8597 19.5876 14.0842 19.6812 14.2905C19.7749 14.4967 19.9134 14.6795 20.0867 14.8254C20.4476 15.143 20.8962 15.3028 21.4325 15.3028C22.0615 15.3028 22.5648 15.0244 22.9432 14.4675H22.9824V15.143H23.8569V12.1431C23.8569 11.514 23.661 11.019 23.2712 10.6581C22.8793 10.2971 22.3472 10.1167 21.6717 10.1167ZM24.0054 10.2755L26.0122 14.8357L24.8799 17.29H25.8235L28.875 10.2745H27.8798L26.4691 13.7714H26.4485L24.9985 10.2755H24.0054ZM21.7924 12.7175C22.3018 12.7175 22.6999 12.8309 22.9845 13.0578C22.9845 13.4414 22.8329 13.7755 22.5307 14.0612C22.258 14.334 21.8883 14.4875 21.5026 14.4881C21.2449 14.493 20.9934 14.4085 20.791 14.2489C20.6968 14.1808 20.6203 14.0911 20.5677 13.9875C20.5152 13.8838 20.4881 13.7691 20.4889 13.6528C20.4889 13.3878 20.6126 13.1681 20.8632 12.9856C21.1107 12.8072 21.4211 12.7175 21.7924 12.7175Z" fill="#FED4A0"/>
</g>
<defs>
<clipPath id="clip0_972_2543">
<rect width="24.75" height="24.75" fill="white" transform="translate(4.125)"/>
</clipPath>
</defs>
</svg>
