<svg width="24" height="24" viewBox="0 0 24 24" fill="none" xmlns="http://www.w3.org/2000/svg">
<path d="M17.318 0.077C18.536 0.133 19.378 0.312 20.156 0.614C20.8937 0.889811 21.5615 1.32479 22.112 1.888C22.6752 2.43849 23.1102 3.10632 23.386 3.844C23.688 4.623 23.867 5.464 23.923 6.682C23.992 8.192 24 8.724 24 12C24 15.276 23.992 15.808 23.923 17.318C23.867 18.536 23.688 19.378 23.386 20.157C23.1101 20.8943 22.6751 21.5618 22.112 22.112C21.5615 22.6752 20.8937 23.1102 20.156 23.386C19.377 23.688 18.536 23.867 17.318 23.923C15.808 23.992 15.277 24 12 24C8.723 24 8.191 23.992 6.682 23.923C5.464 23.867 4.622 23.688 3.843 23.386C3.10567 23.1101 2.43818 22.6751 1.888 22.112C1.32479 21.5615 0.889811 20.8937 0.614 20.156C0.312 19.377 0.133 18.536 0.077 17.318C0.008 15.81 0 15.278 0 12C0 8.723 0.008 8.19 0.077 6.682C0.133 5.464 0.312 4.622 0.614 3.844C0.889811 3.10632 1.32479 2.43849 1.888 1.888C2.4382 1.32491 3.10568 0.889941 3.843 0.614C4.623 0.312 5.464 0.133 6.682 0.077C8.19 0.008 8.722 0 12 0C15.277 0 15.81 0.008 17.318 0.077ZM12 2.667C8.76 2.667 8.264 2.674 6.803 2.741C5.876 2.783 5.32 2.901 4.809 3.1C4.41678 3.24222 4.06237 3.47245 3.773 3.773C3.47181 4.06184 3.24148 4.41641 3.1 4.809C2.902 5.319 2.783 5.876 2.741 6.803C2.674 8.264 2.667 8.76 2.667 12C2.667 15.24 2.674 15.736 2.741 17.197C2.783 18.124 2.901 18.68 3.1 19.19C3.27 19.626 3.45 19.903 3.773 20.227C4.097 20.551 4.374 20.731 4.809 20.9C5.319 21.098 5.876 21.217 6.803 21.259C8.265 21.326 8.761 21.333 12 21.333C15.24 21.333 15.735 21.326 17.197 21.259C18.124 21.217 18.68 21.099 19.191 20.9C19.5832 20.7578 19.9376 20.5275 20.227 20.227C20.551 19.903 20.731 19.626 20.9 19.191C21.098 18.681 21.217 18.124 21.259 17.197C21.326 15.735 21.333 15.239 21.333 12C21.333 8.761 21.326 8.265 21.259 6.803C21.217 5.876 21.099 5.32 20.9 4.81C20.7586 4.41708 20.5283 4.06218 20.227 3.773C19.9378 3.47171 19.5829 3.24138 19.19 3.1C18.68 2.902 18.123 2.783 17.196 2.741C15.735 2.674 15.239 2.667 11.999 2.667H12ZM12 18.222C10.3498 18.222 8.76723 17.5665 7.60038 16.3996C6.43353 15.2328 5.778 13.6502 5.778 12C5.778 10.3498 6.43353 8.76723 7.60038 7.60038C8.76723 6.43353 10.3498 5.778 12 5.778C13.6502 5.778 15.2328 6.43353 16.3996 7.60038C17.5665 8.76723 18.222 10.3498 18.222 12C18.222 13.6502 17.5665 15.2328 16.3996 16.3996C15.2328 17.5665 13.6502 18.222 12 18.222ZM12 15.556C12.9431 15.556 13.8476 15.1814 14.5145 14.5145C15.1814 13.8476 15.556 12.9431 15.556 12C15.556 11.0569 15.1814 10.1524 14.5145 9.48553C13.8476 8.81865 12.9431 8.444 12 8.444C11.0569 8.444 10.1524 8.81865 9.48553 9.48553C8.81865 10.1524 8.444 11.0569 8.444 12C8.444 12.9431 8.81865 13.8476 9.48553 14.5145C10.1524 15.1814 11.0569 15.556 12 15.556ZM18.222 7.111C17.8683 7.111 17.5292 6.97051 17.2791 6.72043C17.029 6.47035 16.8885 6.13117 16.8885 5.7775C16.8885 5.42383 17.029 5.08465 17.2791 4.83457C17.5292 4.58449 17.8683 4.444 18.222 4.444C18.5757 4.444 18.9148 4.58449 19.1649 4.83457C19.415 5.08465 19.5555 5.42383 19.5555 5.7775C19.5555 6.13117 19.415 6.47035 19.1649 6.72043C18.9148 6.97051 18.5757 7.111 18.222 7.111Z" fill="#FED4A0"/>
</svg>
