<svg width="33" height="24" viewBox="0 0 33 24" fill="none" xmlns="http://www.w3.org/2000/svg">
<rect x="0.5" y="1.375" width="32" height="22" rx="3.5" fill="#35373B"/>
<rect x="0.5" y="1.375" width="32" height="22" rx="3.5" stroke="#FED4A0"/>
<path fill-rule="evenodd" clip-rule="evenodd" d="M20.8963 5.95801C24.4995 5.95801 27.4205 8.84463 27.4205 12.4055C27.4205 15.9663 24.4995 18.8529 20.8963 18.8529C19.2814 18.8529 17.8035 18.2731 16.6642 17.3126C15.5258 18.2729 14.0477 18.8529 12.4325 18.8529C8.8293 18.8529 5.90833 15.9663 5.90833 12.4055C5.90833 8.84463 8.8293 5.95801 12.4325 5.95801C14.0477 5.95801 15.5258 6.53807 16.6652 7.49889C17.8035 6.53786 19.2814 5.95801 20.8963 5.95801Z" fill="#FF5E00"/>
<path fill-rule="evenodd" clip-rule="evenodd" d="M12.4325 5.95801C14.0477 5.95801 15.5258 6.53807 16.6652 7.49889C15.2615 8.68096 14.3721 10.4406 14.3721 12.4055C14.3721 14.3704 15.2615 16.13 16.6642 17.3126C15.5258 18.2729 14.0477 18.8529 12.4325 18.8529C8.8293 18.8529 5.90833 15.9663 5.90833 12.4055C5.90833 8.84463 8.8293 5.95801 12.4325 5.95801Z" fill="#ED0006"/>
<path fill-rule="evenodd" clip-rule="evenodd" d="M20.8963 5.95801C24.4995 5.95801 27.4204 8.84463 27.4204 12.4055C27.4204 15.9663 24.4995 18.8529 20.8963 18.8529C19.2812 18.8529 17.8033 18.273 16.6639 17.3124C18.0675 16.1295 18.9566 14.3701 18.9566 12.4055C18.9566 10.4409 18.0675 8.68147 16.6652 7.49889C17.8033 6.53794 19.2812 5.95801 20.8963 5.95801Z" fill="#F9A000"/>
</svg>
