<svg width="33" height="25" viewBox="0 0 33 25" fill="none" xmlns="http://www.w3.org/2000/svg">
<rect x="0.5" y="0.5" width="32" height="23.75" rx="3.5" fill="#35373B" stroke="#FED4A0"/>
<path d="M15.0501 18.9521C15.1157 18.9521 15.1735 18.9985 15.1924 19.0663L15.4925 20.1492L16.2005 19.0224C16.2282 18.9785 16.2741 18.9522 16.3233 18.9521H16.8366C16.8697 18.9521 16.9001 18.972 16.9154 19.0036C16.9307 19.0353 16.9285 19.0736 16.9096 19.1029L15.2022 21.7658C15.1745 21.809 15.129 21.8347 15.0804 21.8346H14.5676C14.5344 21.8346 14.5039 21.8145 14.4886 21.7826C14.4733 21.7507 14.4758 21.7122 14.4951 21.6829L15.0267 20.8721L14.4613 19.0792C14.452 19.0498 14.4564 19.0174 14.4732 18.9921C14.4899 18.9669 14.5169 18.952 14.5456 18.9521H15.0501ZM12.8555 18.9002C13.1017 18.9002 13.3483 18.9581 13.4589 19.1316L13.4946 19.1875L13.5172 19.0331C13.524 18.9865 13.5613 18.9521 13.605 18.9521H14.1159C14.1419 18.9521 14.1665 18.9644 14.1833 18.9857C14.2002 19.007 14.2075 19.0353 14.2034 19.063L13.9273 20.9521C13.916 21.0301 13.8539 21.0875 13.7808 21.0875H13.3207C13.2947 21.0874 13.27 21.0751 13.2531 21.0537C13.2362 21.0323 13.2289 21.004 13.233 20.9762L13.2558 20.8229C13.2558 20.8229 13.0036 21.1389 12.5487 21.1389C12.2837 21.1389 12.0609 21.0563 11.9052 20.8581C11.7355 20.6425 11.6661 20.3334 11.7149 20.0102C11.8088 19.3621 12.291 18.9002 12.8555 18.9002ZM20.4651 18.9002C20.7112 18.9002 20.9577 18.9581 21.0683 19.1316L21.1041 19.1875L21.1268 19.0331C21.1334 18.9864 21.1707 18.952 21.2144 18.9521H21.725C21.751 18.952 21.7757 18.9643 21.7926 18.9856C21.8096 19.0069 21.8171 19.0352 21.8131 19.063L21.5368 20.9521C21.5256 21.03 21.4635 21.0874 21.3905 21.0875H20.9305C20.9045 21.0875 20.8797 21.0752 20.8627 21.0538C20.8458 21.0324 20.8384 21.004 20.8425 20.9762L20.8653 20.8229C20.8653 20.8229 20.6131 21.1389 20.1582 21.1389C19.8932 21.1389 19.6708 21.0563 19.5148 20.8581C19.3451 20.6425 19.276 20.3334 19.3246 20.0102C19.4185 19.3621 19.9005 18.9002 20.4651 18.9002ZM10.927 17.8859C11.2841 17.8859 11.553 17.9877 11.7046 18.1802C11.8427 18.3555 11.8884 18.6057 11.8407 18.9243C11.7348 19.6524 11.3292 20.0198 10.6265 20.0198H10.2887C10.2158 20.0198 10.1537 20.0772 10.1424 20.1551L10.0261 20.9523C10.0148 21.0302 9.95261 21.0877 9.87959 21.0876H9.37029C9.34429 21.0877 9.31958 21.0754 9.30266 21.0541C9.28573 21.0327 9.2783 21.0045 9.28232 20.9767L9.71378 18.0211C9.72515 17.9432 9.78729 17.8859 9.86025 17.8859H10.927ZM18.5363 17.8859C18.8933 17.8859 19.1621 17.9877 19.3136 18.1802C19.4516 18.3555 19.4976 18.6057 19.4497 18.9243C19.3437 19.6524 18.9382 20.0198 18.2354 20.0198H17.8978C17.8249 20.0198 17.7628 20.0772 17.7515 20.1551L17.629 20.9929C17.6211 21.0474 17.5777 21.0875 17.5267 21.0876H16.9792C16.9532 21.0876 16.9286 21.0753 16.9117 21.054C16.8948 21.0327 16.8875 21.0044 16.8915 20.9767L17.323 18.0211C17.3344 17.9433 17.3964 17.8859 17.4693 17.8859H18.5363ZM22.9078 17.8857C22.9338 17.8858 22.9585 17.8981 22.9753 17.9195C22.9922 17.9408 22.9995 17.9691 22.9955 17.9968L22.5637 20.9523C22.5525 21.0303 22.4904 21.0876 22.4172 21.0876H21.977C21.9511 21.0876 21.9264 21.0753 21.9095 21.054C21.8927 21.0327 21.8853 21.0044 21.8894 20.9767L22.3272 17.967C22.334 17.9203 22.3712 17.8859 22.4149 17.8857H22.9078ZM12.9767 19.4855C12.6858 19.4855 12.4503 19.7041 12.4042 20.0167C12.3802 20.1701 12.4089 20.3078 12.4844 20.4045C12.5605 20.502 12.6791 20.5534 12.8274 20.5534C13.1229 20.5534 13.3545 20.3417 13.4038 20.0263C13.4261 19.8736 13.3952 19.7351 13.3174 19.6358C13.2397 19.5376 13.1218 19.4855 12.9767 19.4855ZM20.5858 19.4855C20.2949 19.4855 20.0596 19.7041 20.0133 20.0167C19.9896 20.1701 20.018 20.3078 20.0935 20.4045C20.1696 20.502 20.2885 20.5534 20.4365 20.5534C20.7319 20.5534 20.9639 20.3417 21.0129 20.0263C21.0355 19.8736 21.0046 19.7351 20.9265 19.6358C20.8488 19.5376 20.7309 19.4855 20.5858 19.4855ZM10.5301 18.5255H10.4563C10.4125 18.5255 10.3753 18.5599 10.3685 18.6066L10.2555 19.379L10.4937 19.3787C10.7505 19.3756 10.9971 19.3414 11.0501 18.9654C11.0715 18.8201 11.0543 18.7149 10.9983 18.6442C10.9044 18.5255 10.7227 18.5255 10.5301 18.5255ZM18.1394 18.5255H18.0657C18.0219 18.5255 17.9847 18.5599 17.978 18.6066L17.8649 19.379L18.1029 19.3787C18.3599 19.3756 18.6064 19.3414 18.6593 18.9654C18.6807 18.8201 18.6637 18.7149 18.6077 18.6442C18.5138 18.5255 18.3319 18.5255 18.1394 18.5255Z" fill="#FED4A0"/>
<path opacity="0.68" d="M20.5491 7.6121C20.6932 6.60249 20.5481 5.91567 20.0511 5.29336C19.504 4.60839 18.5157 4.31494 17.2511 4.31494H13.5803C13.3219 4.31494 13.1018 4.52154 13.0616 4.80217L11.5329 15.4524C11.5029 15.6625 11.6507 15.8525 11.8442 15.8525H14.1103L13.9539 16.9423C13.9276 17.1262 14.0568 17.2924 14.2262 17.2924H16.1364C16.3624 17.2924 16.5549 17.1117 16.5902 16.8662L16.6089 16.7594L16.9687 14.2522L16.992 14.1136C17.0272 13.8683 17.2197 13.6873 17.4457 13.6873H17.7314C19.582 13.6873 21.031 12.8613 21.4543 10.4723C21.6313 9.47403 21.5397 8.64075 21.0719 8.05491C20.9305 7.87805 20.7544 7.7316 20.5491 7.6121Z" fill="#FED4A0"/>
<path opacity="0.7" d="M20.5491 7.6121C20.6932 6.60249 20.5481 5.91567 20.0511 5.29336C19.504 4.60839 18.5157 4.31494 17.2511 4.31494H13.5803C13.3219 4.31494 13.1018 4.52154 13.0616 4.80217L11.5329 15.4524C11.5029 15.6625 11.6507 15.8525 11.8442 15.8525H14.1103L14.6796 11.8861L14.6619 12.0105C14.7022 11.73 14.9203 11.5232 15.1788 11.5232H16.256C18.3713 11.5232 20.0277 10.5789 20.5115 7.84805C20.526 7.76742 20.5381 7.68903 20.5491 7.6121Z" fill="#FED4A0"/>
<path d="M15.2912 7.62545C15.3154 7.45679 15.414 7.31852 15.5467 7.24873C15.607 7.21701 15.6745 7.1993 15.7451 7.1993H18.6225C18.9634 7.1993 19.2812 7.22388 19.5717 7.2753C19.6548 7.28997 19.7356 7.30689 19.8141 7.32606C19.8926 7.34523 19.9689 7.36651 20.0426 7.3903C20.0795 7.40206 20.1157 7.41462 20.1515 7.42758C20.2941 7.47966 20.4271 7.54099 20.5493 7.61223C20.6934 6.60262 20.5483 5.9158 20.0514 5.29349C19.504 4.60839 18.5157 4.31494 17.2511 4.31494H13.5803C13.3219 4.31494 13.1018 4.52154 13.0616 4.80217L11.5329 15.4524C11.5029 15.6625 11.6507 15.8525 11.8442 15.8525H14.1103L14.6796 11.8861L15.2912 7.62545Z" fill="#FED4A0"/>
</svg>
