<svg width="34" height="25" viewBox="0 0 34 25" fill="none" xmlns="http://www.w3.org/2000/svg">
<rect x="0.5" y="0.875" width="33" height="23" rx="3.5" stroke="#FED4A0"/>
<path d="M7.98677 9.44881H8.91205C9.08627 9.44881 9.2152 9.57647 9.23623 9.72155L9.23777 9.73214L9.23976 9.74266L10.0042 13.788L10.3158 15.4372L10.9575 13.8863L12.7934 9.44881H13.6167L11.0905 15.4599H9.84367L8.46839 10.2247L8.46841 10.2247L8.46738 10.221C8.39338 9.94796 8.24172 9.65414 7.98677 9.44881ZM18.8948 10.8195L18.8896 10.8551V10.8911C18.8896 11.3849 19.2829 11.6742 19.5228 11.8263C19.6632 11.9153 19.8209 11.9988 19.971 12.0767C20.0017 12.0926 20.0322 12.1084 20.0625 12.1241C20.1861 12.1879 20.307 12.2504 20.429 12.3183C21.049 12.6636 21.4549 13.0211 21.4549 13.6409C21.4549 14.2096 21.2171 14.6672 20.7781 14.9913C20.326 15.325 19.627 15.5389 18.694 15.5143L18.694 15.5141H18.6808C18.21 15.5141 17.7154 15.453 17.2435 15.3122L17.3539 14.803C17.8485 14.9645 18.3709 15.0578 18.8992 15.0578C19.2268 15.0578 19.5915 14.9946 19.8934 14.8255C20.2016 14.6529 20.474 14.3453 20.4895 13.8973C20.5082 13.7478 20.4929 13.5931 20.4307 13.4415C20.3652 13.2815 20.2599 13.155 20.1471 13.0536C19.9358 12.8636 19.629 12.7031 19.278 12.5426C18.9596 12.3848 18.6262 12.198 18.373 11.9534C18.1279 11.7166 17.9796 11.4479 17.9796 11.1061C17.9796 10.1613 18.9192 9.28711 20.5908 9.28711C20.9448 9.28711 21.3281 9.33911 21.699 9.4425L21.5899 9.94541C21.1132 9.80578 20.607 9.75736 20.1299 9.79777C19.5759 9.80725 18.9926 10.1427 18.8948 10.8195ZM25.0891 9.68234L25.0963 9.66545L25.1021 9.64808C25.1382 9.54136 25.2652 9.44881 25.3928 9.44881H25.6486L25.1972 10.6626L24.2144 13.3049L23.9636 13.9792H24.683H26.2109H26.8245L26.7006 13.3782L26.1555 10.7359L25.89 9.44881H26.5694L27.8326 15.4599H27.1615L27.0275 14.8312L26.9431 14.4355H26.5385H24.1916H23.8442L23.723 14.7611L23.4629 15.4599H22.6537L25.0891 9.68234ZM16.3684 9.44881L15.0585 15.4599H14.2265L15.5364 9.44881H16.3684Z" fill="#FED4A0" stroke="#FED4A0"/>
</svg>
